<svg width="24" height="24" viewBox="0 0 24 24" fill="none" xmlns="http://www.w3.org/2000/svg">
<path d="M10.7682 6.35984C11.1218 6.78412 11.0645 7.41468 10.6402 7.76825L6.76205 11H20C20.5523 11 21 11.4477 21 12C21 12.5523 20.5523 13 20 13H6.76205L10.6402 16.2318C11.0645 16.5854 11.1218 17.2159 10.7682 17.6402C10.4147 18.0645 9.78409 18.1218 9.35982 17.7682L3.35982 12.7682C3.13182 12.5783 3 12.2968 3 12C3 11.7032 3.13182 11.4218 3.35982 11.2318L9.35982 6.2318C9.78409 5.87824 10.4147 5.93556 10.7682 6.35984Z" fill="black"/>
</svg>
