<svg width="32" height="32" viewBox="0 0 32 32" fill="none" xmlns="http://www.w3.org/2000/svg">
<path fill-rule="evenodd" clip-rule="evenodd" d="M14.4 27.2C14.4 27.6243 14.5685 28.0313 14.8686 28.3314C15.1686 28.6314 15.5756 28.8 16 28.8C16.4243 28.8 16.8313 28.6314 17.1313 28.3314C17.4314 28.0313 17.6 27.6243 17.6 27.2V17.6H27.2C27.6243 17.6 28.0313 17.4314 28.3313 17.1314C28.6314 16.8313 28.8 16.4243 28.8 16C28.8 15.5757 28.6314 15.1687 28.3313 14.8686C28.0313 14.5686 27.6243 14.4 27.2 14.4H17.6V4.8C17.6 4.37565 17.4314 3.96869 17.1313 3.66863C16.8313 3.36857 16.4243 3.2 16 3.2C15.5756 3.2 15.1686 3.36857 14.8686 3.66863C14.5685 3.96869 14.4 4.37565 14.4 4.8V14.4H4.79995C4.3756 14.4 3.96864 14.5686 3.66858 14.8686C3.36852 15.1687 3.19995 15.5757 3.19995 16C3.19995 16.4243 3.36852 16.8313 3.66858 17.1314C3.96864 17.4314 4.3756 17.6 4.79995 17.6H14.4V27.2Z" fill="black"/>
</svg>
