<svg width="36" height="36" viewBox="0 0 36 36" fill="none" xmlns="http://www.w3.org/2000/svg">
<g clip-path="url(#clip0_36_295)">
<mask id="mask0_36_295" style="mask-type:luminance" maskUnits="userSpaceOnUse" x="0" y="0" width="36" height="36">
<path d="M0 0H36V36H0V0Z" fill="white"/>
</mask>
<g mask="url(#mask0_36_295)">
<path fill-rule="evenodd" clip-rule="evenodd" d="M16.1977 4.5H19.8C19.9193 4.5 20.0338 4.54741 20.1181 4.6318C20.2025 4.71619 20.25 4.83065 20.25 4.95C20.25 9.018 24.6555 11.5628 28.179 9.5265C28.2817 9.46775 28.4035 9.45205 28.5177 9.48283C28.632 9.51361 28.7294 9.58836 28.7887 9.69075L30.5932 12.8138C30.6226 12.8647 30.6417 12.921 30.6494 12.9793C30.6571 13.0377 30.6532 13.097 30.638 13.1538C30.6227 13.2106 30.5964 13.2639 30.5605 13.3106C30.5247 13.3572 30.48 13.3964 30.429 13.4257C26.9055 15.4598 26.9055 20.5448 30.429 22.581C30.5313 22.6403 30.6061 22.7377 30.6369 22.852C30.6676 22.9662 30.6519 23.088 30.5932 23.1908L28.7887 26.3137C28.7294 26.4161 28.632 26.4909 28.5177 26.5217C28.4035 26.5524 28.2817 26.5367 28.179 26.478C24.6555 24.4417 20.25 26.9843 20.25 31.05C20.25 31.169 20.2029 31.2831 20.1189 31.3674C20.035 31.4517 19.9212 31.4994 19.8022 31.5H16.2C16.1408 31.5003 16.0821 31.4889 16.0274 31.4664C15.9727 31.4438 15.9229 31.4107 15.8811 31.3689C15.8392 31.327 15.8061 31.2773 15.7836 31.2226C15.7611 31.1678 15.7497 31.1092 15.75 31.05C15.75 26.982 11.3445 24.4395 7.82095 26.4735C7.76999 26.5029 7.71373 26.522 7.65538 26.5297C7.59703 26.5374 7.53774 26.5335 7.4809 26.5182C7.42406 26.503 7.37078 26.4767 7.32412 26.4408C7.27746 26.405 7.23832 26.3603 7.20895 26.3092L5.40895 23.1863C5.35001 23.0838 5.33397 22.9622 5.36432 22.848C5.39466 22.7338 5.46894 22.6362 5.57095 22.5765C9.09445 20.5403 9.09445 15.4553 5.57095 13.419C5.46856 13.3597 5.39381 13.2623 5.36303 13.148C5.33225 13.0338 5.34795 12.912 5.4067 12.8092L7.20895 9.68625C7.23832 9.63525 7.27746 9.59054 7.32412 9.55468C7.37078 9.51882 7.42406 9.49251 7.4809 9.47725C7.53774 9.462 7.59703 9.4581 7.65538 9.46577C7.71373 9.47345 7.76999 9.49256 7.82095 9.522C11.3445 11.5605 15.75 9.01575 15.75 4.95C15.75 4.7025 15.9502 4.5 16.1977 4.5ZM12.375 4.95C12.375 2.835 14.085 1.125 16.1977 1.125H19.8C21.915 1.125 23.625 2.835 23.625 4.95C23.6256 5.28517 23.7144 5.61428 23.8823 5.90435C24.0502 6.19442 24.2914 6.43527 24.5817 6.60276C24.872 6.77025 25.2013 6.85851 25.5365 6.85868C25.8716 6.85885 26.201 6.77094 26.4915 6.60375C27.3693 6.09747 28.4123 5.96049 29.3912 6.22292C30.37 6.48535 31.2046 7.12571 31.7115 8.00325L33.516 11.1263C34.5712 12.9555 33.9435 15.291 32.1165 16.3462C31.8258 16.5141 31.5845 16.7556 31.4168 17.0462C31.249 17.3369 31.1607 17.6666 31.1607 18.0023C31.1607 18.3379 31.249 18.6676 31.4168 18.9583C31.5845 19.2489 31.8258 19.4904 32.1165 19.6583C32.9935 20.1656 33.6335 21.0001 33.8959 21.9788C34.1583 22.9574 34.0216 24.0002 33.516 24.8783L31.7115 28.0012C31.2046 28.8788 30.37 29.5191 29.3912 29.7816C28.4123 30.044 27.3693 29.907 26.4915 29.4008C26.201 29.2336 25.8716 29.1456 25.5365 29.1458C25.2013 29.146 24.872 29.2342 24.5817 29.4017C24.2914 29.5692 24.0502 29.8101 23.8823 30.1002C23.7144 30.3902 23.6256 30.7193 23.625 31.0545C23.625 33.1673 21.9149 34.8795 19.8022 34.8795H16.2C15.1859 34.8789 14.2136 34.4757 13.4967 33.7584C12.7799 33.0411 12.3772 32.0686 12.3772 31.0545C12.3765 30.7193 12.2878 30.3902 12.1199 30.1002C11.9519 29.8101 11.7107 29.5692 11.4204 29.4017C11.1301 29.2342 10.8009 29.146 10.4657 29.1458C10.1305 29.1456 9.80119 29.2336 9.5107 29.4008C9.07609 29.6517 8.59629 29.8146 8.0987 29.8801C7.60112 29.9456 7.09551 29.9124 6.61075 29.7825C6.126 29.6525 5.6716 29.4283 5.27352 29.1227C4.87543 28.8171 4.54147 28.436 4.2907 28.0012L2.4862 24.8783C1.97992 24.0004 1.84294 22.9574 2.10537 21.9785C2.3678 20.9997 3.00816 20.1651 3.8857 19.6583C4.17578 19.4902 4.4166 19.2489 4.584 18.9584C4.75141 18.668 4.83953 18.3386 4.83953 18.0034C4.83953 17.6681 4.75141 17.3388 4.584 17.0483C4.4166 16.7579 4.17578 16.5165 3.8857 16.3485C3.45089 16.0975 3.06977 15.7633 2.76411 15.3651C2.45846 14.9668 2.23425 14.5122 2.10429 14.0272C1.97433 13.5423 1.94117 13.0365 2.0067 12.5388C2.07223 12.041 2.23516 11.561 2.4862 11.1263L4.28845 8.00325C4.79533 7.12571 5.62991 6.48535 6.60874 6.22292C7.58758 5.96049 8.63057 6.09747 9.50845 6.60375C9.79894 6.77094 10.1283 6.85885 10.4634 6.85868C10.7986 6.85851 11.1279 6.77025 11.4182 6.60276C11.7085 6.43527 11.9497 6.19442 12.1176 5.90435C12.2855 5.61428 12.3743 5.28517 12.375 4.95ZM21.375 18C21.375 18.8951 21.0194 19.7536 20.3864 20.3865C19.7535 21.0194 18.8951 21.375 18 21.375C17.1048 21.375 16.2464 21.0194 15.6135 20.3865C14.9805 19.7536 14.625 18.8951 14.625 18C14.625 17.1049 14.9805 16.2464 15.6135 15.6135C16.2464 14.9806 17.1048 14.625 18 14.625C18.8951 14.625 19.7535 14.9806 20.3864 15.6135C21.0194 16.2464 21.375 17.1049 21.375 18ZM24.75 18C24.75 19.7902 24.0388 21.5071 22.7729 22.773C21.5071 24.0388 19.7902 24.75 18 24.75C16.2097 24.75 14.4929 24.0388 13.227 22.773C11.9611 21.5071 11.25 19.7902 11.25 18C11.25 16.2098 11.9611 14.4929 13.227 13.227C14.4929 11.9612 16.2097 11.25 18 11.25C19.7902 11.25 21.5071 11.9612 22.7729 13.227C24.0388 14.4929 24.75 16.2098 24.75 18Z" fill="#650000"/>
</g>
</g>
<defs>
<clipPath id="clip0_36_295">
<rect width="36" height="36" fill="white"/>
</clipPath>
</defs>
</svg>
