<svg width="36" height="36" viewBox="0 0 36 36" fill="none" xmlns="http://www.w3.org/2000/svg">
<path fill-rule="evenodd" clip-rule="evenodd" d="M12.375 13.5C13.2701 13.5 14.1286 13.1444 14.7615 12.5115C15.3944 11.8786 15.75 11.0201 15.75 10.125C15.75 9.22989 15.3944 8.37145 14.7615 7.73851C14.1286 7.10558 13.2701 6.75 12.375 6.75C11.4799 6.75 10.6214 7.10558 9.98851 7.73851C9.35558 8.37145 9 9.22989 9 10.125C9 11.0201 9.35558 11.8786 9.98851 12.5115C10.6214 13.1444 11.4799 13.5 12.375 13.5ZM12.375 16.875C14.1652 16.875 15.8821 16.1638 17.148 14.898C18.4138 13.6321 19.125 11.9152 19.125 10.125C19.125 8.33479 18.4138 6.6179 17.148 5.35203C15.8821 4.08616 14.1652 3.375 12.375 3.375C10.5848 3.375 8.8679 4.08616 7.60203 5.35203C6.33616 6.6179 5.625 8.33479 5.625 10.125C5.625 11.9152 6.33616 13.6321 7.60203 14.898C8.8679 16.1638 10.5848 16.875 12.375 16.875ZM5.55975 23.3685C3.8115 24.5835 3.375 25.7603 3.375 26.307C3.375 27.3105 4.1895 28.125 5.193 28.125H19.557C20.0392 28.125 20.5016 27.9335 20.8425 27.5925C21.1835 27.2516 21.375 26.7892 21.375 26.307C21.375 25.758 20.9385 24.5812 19.1903 23.3685C17.532 22.2188 15.1178 21.375 12.375 21.375C9.6345 21.375 7.218 22.2188 5.55975 23.3685ZM0 26.307C0 22.1535 5.56875 18 12.375 18C15.03 18 17.5005 18.6323 19.5233 19.6515C21.4603 18.5566 23.65 17.9873 25.875 18C31.4438 18 36 21.4605 36 24.9232C36 26.0708 35.5441 27.1713 34.7327 27.9827C33.9213 28.7941 32.8208 29.25 31.6732 29.25H23.8365C22.9005 30.609 21.3323 31.5 19.557 31.5H5.193C3.81573 31.5 2.49487 30.9529 1.52099 29.979C0.547118 29.0051 0 27.6843 0 26.307ZM24.7297 25.875H31.6732C32.1997 25.875 32.625 25.4475 32.625 24.9232C32.625 24.6915 32.409 23.8612 31.077 22.9207C29.8305 22.0365 27.9832 21.375 25.875 21.375C24.7118 21.375 23.6273 21.5775 22.68 21.906C23.8635 23.1075 24.6015 24.4845 24.7297 25.875ZM28.125 11.25C28.125 11.8467 27.8879 12.419 27.466 12.841C27.044 13.2629 26.4717 13.5 25.875 13.5C25.2783 13.5 24.706 13.2629 24.284 12.841C23.8621 12.419 23.625 11.8467 23.625 11.25C23.625 10.6533 23.8621 10.081 24.284 9.65901C24.706 9.23705 25.2783 9 25.875 9C26.4717 9 27.044 9.23705 27.466 9.65901C27.8879 10.081 28.125 10.6533 28.125 11.25ZM31.5 11.25C31.5 12.7418 30.9074 14.1726 29.8525 15.2275C28.7976 16.2824 27.3668 16.875 25.875 16.875C24.3832 16.875 22.9524 16.2824 21.8975 15.2275C20.8426 14.1726 20.25 12.7418 20.25 11.25C20.25 9.75816 20.8426 8.32742 21.8975 7.27252C22.9524 6.21763 24.3832 5.625 25.875 5.625C27.3668 5.625 28.7976 6.21763 29.8525 7.27252C30.9074 8.32742 31.5 9.75816 31.5 11.25Z" fill="#650000"/>
</svg>
