<svg width="36" height="36" viewBox="0 0 36 36" fill="none" xmlns="http://www.w3.org/2000/svg">
<path fill-rule="evenodd" clip-rule="evenodd" d="M18 6.75H10.125C9.22989 6.75 8.37145 7.10558 7.73851 7.73851C7.10558 8.37145 6.75 9.22989 6.75 10.125V19.125H18V6.75ZM21.375 6.75V19.125H29.25V10.125C29.25 9.22989 28.8944 8.37145 28.2615 7.73851C27.6286 7.10558 26.7701 6.75 25.875 6.75H21.375ZM6.75 25.875V22.5H13.5V29.25H10.125C9.22989 29.25 8.37145 28.8944 7.73851 28.2615C7.10558 27.6286 6.75 26.7701 6.75 25.875ZM25.3125 29.25H16.875V22.5H25.3125V29.25ZM10.125 3.375C8.33479 3.375 6.6179 4.08616 5.35203 5.35203C4.08616 6.6179 3.375 8.33479 3.375 10.125V25.875C3.375 27.6652 4.08616 29.3821 5.35203 30.648C6.6179 31.9138 8.33479 32.625 10.125 32.625H25.875C27.6652 32.625 29.3821 31.9138 30.648 30.648C31.9138 29.3821 32.625 27.6652 32.625 25.875V10.125C32.625 8.33479 31.9138 6.6179 30.648 5.35203C29.3821 4.08616 27.6652 3.375 25.875 3.375H10.125Z" fill="#650000"/>
</svg>
